<svg xmlns="http://www.w3.org/2000/svg" aria-hidden="true" style="position:absolute;width:0;height:0;overflow:hidden">
  <defs>
    <symbol id="icon-close" viewBox="0 0 32 32">
      <path fill="none" stroke="#f1f5f9" stroke-linecap="round" stroke-linejoin="round" stroke-width="2.667" d="M6.667 6.667 16 16m0 0 9.333-9.333M16 16l-9.333 9.333M16 16l9.333 9.333" style="stroke:var(--color1, #f1f5f9)"/>
    </symbol>
    <symbol id="icon-down-arrow" viewBox="0 0 30 32">
      <path fill="#0ecbaf" d="m7.568 9.934 7.28 7.28 7.28-7.28 2.427 2.427-9.707 9.707-9.707-9.707 2.427-2.427z" style="fill:var(--color2, #0ecbaf)"/>
    </symbol>
    <symbol id="icon-menu" viewBox="0 0 28 18">
      <path d="M25.7895 14.8235C26.3572 14.8237 26.903 14.9808 27.3138 15.2623C27.7247 15.5438 27.9691 15.928 27.9964 16.3354C28.0236 16.7428 27.8317 17.1422 27.4604 17.4507C27.089 17.7592 26.5667 17.9532 26.0017 17.9926L25.7895 18H2.21053C1.64284 17.9998 1.09702 17.8427 0.686167 17.5612C0.275316 17.2797 0.0309296 16.8955 0.00364846 16.4881C-0.0236327 16.0807 0.168283 15.6814 0.539627 15.3728C0.910971 15.0643 1.43328 14.8703 1.99832 14.8309L2.21053 14.8235H25.7895ZM25.7895 7.41177C26.3757 7.41177 26.938 7.5791 27.3526 7.87695C27.7671 8.1748 28 8.57877 28 9C28 9.42123 27.7671 9.8252 27.3526 10.1231C26.938 10.4209 26.3757 10.5882 25.7895 10.5882H2.21053C1.62426 10.5882 1.062 10.4209 0.647448 10.1231C0.232894 9.8252 0 9.42123 0 9C0 8.57877 0.232894 8.1748 0.647448 7.87695C1.062 7.5791 1.62426 7.41177 2.21053 7.41177H25.7895ZM25.7895 0C26.3757 0 26.938 0.167332 27.3526 0.465183C27.7671 0.763035 28 1.16701 28 1.58824C28 2.00946 27.7671 2.41344 27.3526 2.71129C26.938 3.00914 26.3757 3.17647 25.7895 3.17647H2.21053C1.62426 3.17647 1.062 3.00914 0.647448 2.71129C0.232894 2.41344 0 2.00946 0 1.58824C0 1.16701 0.232894 0.763035 0.647448 0.465183C1.062 0.167332 1.62426 0 2.21053 0H25.7895Z" fill="url(#paint0_linear_24_432)" />
      <defs>
        <linearGradient id="paint0_linear_24_432" x1="14" y1="0" x2="14" y2="18" gradientUnits="userSpaceOnUse">
          <stop stop-color="#0ECBAF" />
          <stop offset="1" stop-color="#0ECBAF" stop-opacity="0.1" />
        </linearGradient>
      </defs>
    </symbol>
    <symbol id="icon-email" viewBox="0 0 25 25">
      <path d="M21.875 4.6875H3.125C2.7106 4.6875 2.31317 4.85212 2.02015 5.14515C1.72712 5.43817 1.5625 5.8356 1.5625 6.25V18.75C1.5625 19.1644 1.72712 19.5618 2.02015 19.8549C2.31317 20.1479 2.7106 20.3125 3.125 20.3125H21.875C22.2894 20.3125 22.6868 20.1479 22.9799 19.8549C23.2729 19.5618 23.4375 19.1644 23.4375 18.75V6.25C23.4375 5.8356 23.2729 5.43817 22.9799 5.14515C22.6868 4.85212 22.2894 4.6875 21.875 4.6875ZM21.875 9.375L12.5 14.0625L3.125 9.375V6.25L12.5 10.9375L21.875 6.25V9.375Z" fill="url(#paint0_linear_mail)" />
      <defs>
        <linearGradient id="paint0_linear_mail" x1="12.5" y1="4.6875" x2="12.5" y2="20.3125" gradientUnits="userSpaceOnUse">
          <stop stop-color="#0ECBAF" />
          <stop offset="1" stop-color="#0ECBAF" stop-opacity="0.1" />
        </linearGradient>
      </defs>
    </symbol>
  </defs>
</svg>
